<svg xmlns="http://www.w3.org/2000/svg" viewBox="0 0 1080 1080" width="1080" height="1080" preserveAspectRatio="xMidYMid meet" style="width: 100%; height: 100%; transform: translate3d(0px, 0px, 0px);"><defs><clipPath id="__lottie_element_3"><rect width="1080" height="1080" x="0" y="0"/></clipPath></defs><g clip-path="url(#__lottie_element_3)"><g transform="matrix(0.6299999952316284,0,0,0.6299999952316284,540,540)" opacity="1" style="display: block;"><g opacity="1" transform="matrix(1,0,0,1,0,0)"><path fill="rgb(244,244,244)" fill-opacity="1" d=" M0,-540 C298.0260009765625,-540 540,-298.0260009765625 540,0 C540,298.0260009765625 298.0260009765625,540 0,540 C-298.0260009765625,540 -540,298.0260009765625 -540,0 C-540,-298.0260009765625 -298.0260009765625,-540 0,-540z"/><path stroke-linecap="butt" stroke-linejoin="miter" fill-opacity="0" stroke-miterlimit="4" stroke="rgb(0,0,0)" stroke-opacity="1" stroke-width="0" d=" M0,-540 C298.0260009765625,-540 540,-298.0260009765625 540,0 C540,298.0260009765625 298.0260009765625,540 0,540 C-298.0260009765625,540 -540,298.0260009765625 -540,0 C-540,-298.0260009765625 -298.0260009765625,-540 0,-540z"/></g></g><g transform="matrix(0.6349999904632568,0,0,0.6349999904632568,540,540)" opacity="1" style="display: block;"><path stroke-linecap="butt" stroke-linejoin="miter" fill-opacity="0" stroke-miterlimit="4" stroke-dasharray=" 13.700000000000003" stroke-dashoffset="-44" stroke="rgb(34,34,34)" stroke-opacity="1" stroke-width="4.251968503937008" d=" M0,540 C-298.03,540 -540,298.03 -540,0 C-540,0 -540,0 -540,0 C-540,-298.03 -298.03,-540 0,-540 C0,-540 0,-540 0,-540 C298.03,-540 540,-298.03 540,0 C540,0 540,0 540,0 C540,298.03 298.03,540 0,540 C0,540 0,540 0,540z"/><g opacity="1" transform="matrix(-1,0,0,-1,0,0)"/></g><g transform="matrix(0.6349999904632568,0,0,0.6349999904632568,540,540)" opacity="1" style="display: block;"><path stroke-linecap="butt" stroke-linejoin="miter" fill-opacity="0" stroke-miterlimit="4" stroke-dasharray=" 13.700000000000003" stroke-dashoffset="-44" stroke="rgb(34,34,34)" stroke-opacity="1" stroke-width="4.252" d=" M0,-419 C231.24609375,-419 419,-231.24609375 419,0 C419,231.24609375 231.24609375,419 0,419 C-231.24609375,419 -419,231.24609375 -419,0 C-419,-231.24609375 -231.24609375,-419 0,-419z"/><g opacity="1" transform="matrix(1,0,0,1,0,0)"/></g><g transform="matrix(0.6349999904632568,0,0,0.6349999904632568,540,540)" opacity="1" style="display: block;"><path stroke-linecap="butt" stroke-linejoin="miter" fill-opacity="0" stroke-miterlimit="4" stroke-dasharray=" 13.700000000000003" stroke-dashoffset="-44" stroke="rgb(34,34,34)" stroke-opacity="1" stroke-width="4.252" d=" M0,-318.5 C175.7801513671875,-318.5 318.5,-175.7801513671875 318.5,0 C318.5,175.7801513671875 175.7801513671875,318.5 0,318.5 C-175.7801513671875,318.5 -318.5,175.7801513671875 -318.5,0 C-318.5,-175.7801513671875 -175.7801513671875,-318.5 0,-318.5z"/><g opacity="1" transform="matrix(1,0,0,1,0,0)"/></g><g transform="matrix(0.6349999904632568,0,0,0.6349999904632568,540,540)" opacity="1" style="display: block;"><path stroke-linecap="butt" stroke-linejoin="miter" fill-opacity="0" stroke-miterlimit="4" stroke-dasharray=" 13.5" stroke-dashoffset="-44" stroke="rgb(34,34,34)" stroke-opacity="1" stroke-width="4.252" d=" M0,-202 C111.48380279541016,-202 202,-111.48380279541016 202,0 C202,111.48380279541016 111.48380279541016,202 0,202 C-111.48380279541016,202 -202,111.48380279541016 -202,0 C-202,-111.48380279541016 -111.48380279541016,-202 0,-202z"/><g opacity="1" transform="matrix(1,0,0,1,0,0)"/></g><g transform="matrix(0.3174999952316284,-0.5499261021614075,0.5499261021614075,0.3174999952316284,502.3135070800781,562.2747802734375)" opacity="1" style="display: block;"><path stroke-linecap="butt" stroke-linejoin="miter" fill-opacity="0" stroke-miterlimit="4" stroke-dasharray=" 13.7" stroke-dashoffset="-50" stroke="rgb(34,34,34)" stroke-opacity="1" stroke-width="4.3" d=" M62.41699981689453,-503.93701171875 C62.41699981689453,-503.93701171875 62.41699981689453,574.4099731445312 62.41699981689453,574.4099731445312"/><g opacity="1" transform="matrix(1,0,0,1,0,0)"/></g><g transform="matrix(0.3174999952316284,0.5499261021614075,-0.5499261021614075,0.3174999952316284,538.6867065429688,494.72515869140625)" opacity="1" style="display: block;"><path stroke-linecap="butt" stroke-linejoin="miter" fill-opacity="0" stroke-miterlimit="4" stroke-dasharray=" 13.7" stroke-dashoffset="-48" stroke="rgb(34,34,34)" stroke-opacity="1" stroke-width="4.3" d=" M61.91699981689453,-501.57501220703125 C61.91699981689453,-501.57501220703125 61.630001068115234,575.1959838867188 61.630001068115234,575.1959838867188"/><g opacity="1" transform="matrix(1,0,0,1,0,0)"/></g><g transform="matrix(0.6349999904632568,0,0,0.6349999904632568,501.0002136230469,517.9999389648438)" opacity="1" style="display: block;"><path stroke-linecap="butt" stroke-linejoin="miter" fill-opacity="0" stroke-miterlimit="4" stroke-dasharray=" 13.7" stroke-dashoffset="-25" stroke="rgb(34,34,34)" stroke-opacity="1" stroke-width="4.3" d=" M61.630001068115234,-504.7239990234375 C61.630001068115234,-504.7239990234375 61.630001068115234,574.4089965820312 61.630001068115234,574.4089965820312"/><g opacity="1" transform="matrix(1,0,0,1,0,0)"/></g></g></svg>