<svg xmlns="http://www.w3.org/2000/svg" width="36" height="36"><g id="Icon/socialmedia/linkedin" fill-rule="evenodd" stroke="none" stroke-width="1"><path id="Icon-LinkedIn" d="M24.1 13.8c1.77 0 3.2.57 4.28 1.7S30 18.3 30 20.49V29h-5.14v-7.93c0-2.24-.87-3.36-2.6-3.36-.66 0-1.21.18-1.65.52-.44.35-.77.78-.99 1.28-.12.28-.18.68-.18 1.2V29h-5.15c.03-4.09.05-7.34.05-9.75v-1.3c0-2.1-.02-3.36-.05-3.8h5.15v2.12a5.31 5.31 0 0 1 4.65-2.47zm-12.66.36V29H6.3V14.16h5.14zM8.92 7c.85 0 1.54.24 2.06.71.54.49.81 1.13.81 1.91 0 .71-.26 1.3-.79 1.78-.54.49-1.25.73-2.13.73h-.02a2.9 2.9 0 0 1-2.06-.73A2.41 2.41 0 0 1 6 9.56c0-.75.27-1.36.81-1.84A3.05 3.05 0 0 1 8.91 7z"/></g></svg>