<svg xmlns="http://www.w3.org/2000/svg" width="36" height="36"><g id="Icon/share/link" fill-rule="evenodd" stroke="none" stroke-width="1"><path id="Icon-Link" d="M12.19 14.72a6.42 6.42 0 0 1 9.89.98l-2.25 2.25a3.38 3.38 0 0 0-5.47-1.06l-4.3 4.31a3.36 3.36 0 0 0 4.74 4.74l1.33-1.33c1.2.48 2.5.67 3.78.58l-2.93 2.93a6.43 6.43 0 1 1-9.1-9.1l4.3-4.3zm6.83-6.84l-2.93 2.93c1.28-.1 2.58.1 3.78.58l1.33-1.33a3.36 3.36 0 0 1 4.74 4.74l-4.3 4.3a3.36 3.36 0 0 1-5.47-1.05l-2.25 2.25a6.4 6.4 0 0 0 9.89.98l4.3-4.3a6.43 6.43 0 1 0-9.09-9.1z"/></g></svg>