<svg xmlns="http://www.w3.org/2000/svg" viewBox="0 0 32 32" width="32" height="32" preserveAspectRatio="xMidYMid meet" style="width: 100%; height: 100%; transform: translate3d(0px, 0px, 0px);"><defs><clipPath id="__lottie_element_5"><rect width="32" height="32" x="0" y="0"></rect></clipPath></defs><g clip-path="url(#__lottie_element_5)"><g transform="matrix(1,0,0,1,0,0)" opacity="1" style="display: block;"><g opacity="1" transform="matrix(1,0,0,1,16,16)"><path stroke-linecap="butt" stroke-linejoin="miter" fill-opacity="0" stroke-miterlimit="10" stroke="rgb(0,0,0)" stroke-opacity="1" stroke-width="2" d=" M9,5 C9,9.949999809265137 4.949999809265137,14 0,14 C-4.949999809265137,14 -9,9.949999809265137 -9,5 C-9,5 -9,-5 -9,-5 C-9,-9.949999809265137 -4.949999809265137,-14 0,-14 C4.949999809265137,-14 9,-9.949999809265137 9,-5 C9,-5 9,5 9,5z"></path></g><g opacity="1" transform="matrix(1,0,0,1,0,0.6828159093856812)"><path stroke-linecap="round" stroke-linejoin="miter" fill-opacity="0" stroke-miterlimit="10" stroke="rgb(0,0,0)" stroke-opacity="1" stroke-width="2" d=" M16,8 C16,8 16,9.472999572753906 16,10.960000038146973"></path></g></g></g></svg>