<svg xmlns="http://www.w3.org/2000/svg" width="36" height="36"><g id="Icon/socialmedia/twitter" fill-rule="evenodd" stroke="none" stroke-width="1"><path id="Icon-Twitter" d="M13.55 28c9.05 0 14-7.7 14-14.37v-.65A10.2 10.2 0 0 0 30 10.36c-.9.41-1.85.68-2.83.8a5.05 5.05 0 0 0 2.17-2.8c-.97.6-2.03 1-3.13 1.23a4.84 4.84 0 0 0-6.97-.22 5.14 5.14 0 0 0-1.42 4.83A13.87 13.87 0 0 1 7.67 8.92a5.13 5.13 0 0 0 1.52 6.74 4.8 4.8 0 0 1-2.23-.63v.06c0 2.4 1.65 4.48 3.95 4.95a4.8 4.8 0 0 1-2.22.1 4.95 4.95 0 0 0 4.6 3.5A9.72 9.72 0 0 1 6 25.74 13.69 13.69 0 0 0 13.55 28"/></g></svg>