<svg xmlns="http://www.w3.org/2000/svg" width="36" height="36"><g id="Icon/socialmedia/xing" fill-rule="evenodd" stroke="none" stroke-width="1"><path id="Icon-Xing" d="M29.38 6c.25 0 .44.08.54.22.1.15.1.34 0 .54L20.9 20.3v.02l5.73 8.91c.12.2.12.4.01.54-.1.14-.3.22-.54.22h-4.06c-.63 0-.94-.35-1.14-.66l-5.78-9.02.21-.32.16-.23 8.68-13.11c.22-.33.48-.66 1.1-.66zm-17.13 4.74c.63 0 .93.34 1.14.65 0 0 2.77 4.13 2.8 4.15l-.03.03-.07.11-4.3 6.47c-.2.32-.5.67-1.1.67H6.6a.65.65 0 0 1-.53-.24c-.1-.15-.11-.34 0-.53l4.32-6.5v-.01l-2.75-4.05c-.11-.2-.13-.39-.02-.53.1-.15.31-.22.56-.22z"/></g></svg>