<svg xmlns="http://www.w3.org/2000/svg" width="36" height="36"><g id="Icon/socialmedia/youtube" fill-rule="evenodd" stroke="none" stroke-width="1"><path id="Icon-YouTube" d="M18.09 9h.36c1.66.01 7.33.08 8.93.54a3.12 3.12 0 0 1 2.12 2.27c.47 1.9.5 5.72.5 6.15v.08c0 .43-.03 4.26-.5 6.15a3.12 3.12 0 0 1-2.12 2.27c-.72.2-2.26.34-3.9.41l-.54.03c-2.1.09-4.2.1-4.79.1h-.3c-.58 0-2.7-.01-4.79-.1l-.55-.03a22.3 22.3 0 0 1-3.89-.4 3.12 3.12 0 0 1-2.12-2.28c-.43-1.72-.5-5.04-.5-5.95v-.48c0-.91.07-4.23.5-5.95a3.12 3.12 0 0 1 2.12-2.27c1.6-.46 7.27-.53 8.92-.54h.37zm-2.55 5.2v7.6l6.28-3.8-6.28-3.8z"/></g></svg>