<svg xmlns="http://www.w3.org/2000/svg" width="699.666674349043" height="702.6666751437715" preserveAspectRatio="xMidYMid meet" style="width: 100%; height: 100%; transform: translate3d(0px, 0px, 0px);"><rect id="backgroundrect" width="100%" height="100%" x="0" y="0" fill="none" stroke="none"/><defs><clipPath id="__lottie_element_3"><rect width="1080" height="1080" x="0" y="0" id="svg_1"/></clipPath></defs><g class="currentLayer" style=""><title>Layer 1</title><g clip-path="url(#__lottie_element_3)" id="svg_2" class=""><g opacity="1" style="display: block;" id="svg_3"><g opacity="1" stroke-width="0" id="svg_4"><path fill="rgb(244,244,244)" fill-opacity="1" d="M350,11.466674327850342 C537.7563791941357,11.466674327850342 690.1999974250793,163.91029255879403 690.1999974250793,351.6666717529297 C690.1999974250793,539.4230509470653 537.7563791941357,691.866669178009 350,691.866669178009 C162.24362080586434,691.866669178009 9.800002574920654,539.4230509470653 9.800002574920654,351.6666717529297 C9.800002574920654,163.91029255879403 162.24362080586434,11.466674327850342 350,11.466674327850342 z" stroke-width="0" id="svg_5"/><path stroke-linecap="butt" stroke-linejoin="miter" fill-opacity="0" stroke-miterlimit="4" stroke="rgb(0,0,0)" stroke-opacity="1" stroke-width="0" d="M350,11.466674327850342 C537.7563791941357,11.466674327850342 690.1999974250793,163.91029255879403 690.1999974250793,351.6666717529297 C690.1999974250793,539.4230509470653 537.7563791941357,691.866669178009 350,691.866669178009 C162.24362080586434,691.866669178009 9.800002574920654,539.4230509470653 9.800002574920654,351.6666717529297 C9.800002574920654,163.91029255879403 162.24362080586434,11.466674327850342 350,11.466674327850342 z" id="svg_6"/></g></g><g opacity="1" style="display: block;" id="svg_7"><path stroke-linecap="butt" stroke-linejoin="miter" fill-opacity="0" stroke-miterlimit="4" stroke-dasharray=" 13.700000000000003" stroke-dashoffset="-44" stroke="rgb(34,34,34)" stroke-opacity="1" stroke-width="2.6999999594500688" d="M350,694.5666666030884 C160.75095284223562,694.5666666030884 7.100005149841309,540.9157189106941 7.100005149841309,351.6666717529297 C7.100005149841309,351.6666717529297 7.100005149841309,351.6666717529297 7.100005149841309,351.6666717529297 C7.100005149841309,162.4176245951653 160.75095284223562,8.766676902770996 350,8.766676902770996 C350,8.766676902770996 350,8.766676902770996 350,8.766676902770996 C539.2490471577644,8.766676902770996 692.8999948501587,162.4176245951653 692.8999948501587,351.6666717529297 C692.8999948501587,351.6666717529297 692.8999948501587,351.6666717529297 692.8999948501587,351.6666717529297 C692.8999948501587,540.9157189106941 539.2490471577644,694.5666666030884 350,694.5666666030884 C350,694.5666666030884 350,694.5666666030884 350,694.5666666030884 z" id="svg_8"/><g opacity="1" stroke-width="0" id="svg_9"/></g><g opacity="1" style="display: block;" id="svg_10"><path stroke-linecap="butt" stroke-linejoin="miter" fill-opacity="0" stroke-miterlimit="4" stroke-dasharray=" 13.700000000000003" stroke-dashoffset="-44" stroke="rgb(34,34,34)" stroke-opacity="1" stroke-width="2.700019959449768" d="M350,85.60167574882507 C496.8412673259154,85.60167574882507 616.0649960041046,204.8254044270143 616.0649960041046,351.6666717529297 C616.0649960041046,498.5079390788451 496.8412673259154,617.7316677570343 350,617.7316677570343 C203.1587326740846,617.7316677570343 83.93500399589539,498.5079390788451 83.93500399589539,351.6666717529297 C83.93500399589539,204.8254044270143 203.1587326740846,85.60167574882507 350,85.60167574882507 z" id="svg_11"/><g opacity="1" stroke-width="0" id="svg_12"/></g><g opacity="1" style="display: block;" id="svg_13"><path stroke-linecap="butt" stroke-linejoin="miter" fill-opacity="0" stroke-miterlimit="4" stroke-dasharray=" 13.700000000000003" stroke-dashoffset="-44" stroke="rgb(34,34,34)" stroke-opacity="1" stroke-width="2.700019959449768" d="M350,149.41917479038239 C461.6203944417939,149.41917479038239 552.2474969625473,240.04627731113578 552.2474969625473,351.6666717529297 C552.2474969625473,463.2870661947236 461.6203944417939,553.914168715477 350,553.914168715477 C238.3796055582061,553.914168715477 147.7525030374527,463.2870661947236 147.7525030374527,351.6666717529297 C147.7525030374527,240.04627731113578 238.3796055582061,149.41917479038239 350,149.41917479038239 z" id="svg_14"/><g opacity="1" stroke-width="0" id="svg_15"/></g><g opacity="1" style="display: block;" id="svg_16"><path stroke-linecap="butt" stroke-linejoin="miter" fill-opacity="0" stroke-miterlimit="4" stroke-dasharray=" 13.5" stroke-dashoffset="-44" stroke="rgb(34,34,34)" stroke-opacity="1" stroke-width="2.700019959449768" d="M350,223.3966736793518 C420.79221371189306,223.3966736793518 478.2699980735779,280.87445804103663 478.2699980735779,351.6666717529297 C478.2699980735779,422.45888546482274 420.79221371189306,479.93666982650757 350,479.93666982650757 C279.20778628810694,479.93666982650757 221.73000192642212,422.45888546482274 221.73000192642212,351.6666717529297 C221.73000192642212,280.87445804103663 279.20778628810694,223.3966736793518 350,223.3966736793518 z" id="svg_17"/><g opacity="1" stroke-width="0" id="svg_18"/></g><g opacity="1" style="display: block;" id="svg_19"><path stroke-linecap="butt" stroke-linejoin="miter" fill-opacity="0" stroke-miterlimit="4" stroke-dasharray=" 13.7" stroke-dashoffset="-50" stroke="rgb(34,34,34)" stroke-opacity="1" stroke-width="1.3652499794960022" d="M55.002787634954984,179.6167157907089 C55.002787634954984,179.6167157907089 648.0139417983255,521.9918783428416 648.0139417983255,521.9918783428416 " id="svg_20"/><g opacity="1" stroke-width="0" id="svg_21"/></g><g opacity="1" style="display: block;" id="svg_22"><path stroke-linecap="butt" stroke-linejoin="miter" fill-opacity="0" stroke-miterlimit="4" stroke-dasharray=" 13.7" stroke-dashoffset="-48" stroke="rgb(34,34,34)" stroke-opacity="1" stroke-width="1.3652499794960022" d="M644.1745450941626,181.19154082713294 C644.1745450941626,181.19154082713294 51.93894619050161,522.908498849213 51.93894619050161,522.908498849213 " id="svg_23"/><g opacity="1" stroke-width="0" id="svg_24"/></g><g opacity="1" style="display: block;" id="svg_25"><path stroke-linecap="butt" stroke-linejoin="miter" fill-opacity="0" stroke-miterlimit="4" stroke-dasharray=" 13.7" stroke-dashoffset="-25" stroke="rgb(34,34,34)" stroke-opacity="1" stroke-width="2.7304999589920045" d="M350.13526371355056,9.166876151313772 C350.13526371355056,9.166876151313772 350.13526371355056,694.4163180693722 350.13526371355056,694.4163180693722 " id="svg_26"/><g opacity="1" stroke-width="0" id="svg_27"/></g></g></g></svg>