<?xml version="1.0" encoding="UTF-8" standalone="no" ?>
<!DOCTYPE svg PUBLIC "-//W3C//DTD SVG 1.1//EN" "http://www.w3.org/Graphics/SVG/1.1/DTD/svg11.dtd">
<svg xmlns="http://www.w3.org/2000/svg" xmlns:xlink="http://www.w3.org/1999/xlink" version="1.1" width="1080" height="1080" viewBox="0 0 1080 1080" xml:space="preserve">
<desc>Created with Fabric.js 4.2.0</desc>
<defs>
</defs>
<g transform="matrix(1 0 0 1 540 540)" id="cd062857-1617-4210-a6f8-ddf004b8944f"  >
<rect style="stroke: none; stroke-width: 1; stroke-dasharray: none; stroke-linecap: butt; stroke-dashoffset: 0; stroke-linejoin: miter; stroke-miterlimit: 4; fill: rgb(255,255,255); fill-rule: nonzero; opacity: 1;" vector-effect="non-scaling-stroke"  x="-540" y="-540" rx="0" ry="0" width="1080" height="1080" />
</g>
<g transform="matrix(1 0 0 1 540 540)" id="80fd887c-be66-4cf3-858b-c9c1cfc163d9"  >
</g>
<g transform="matrix(2.32 0 0 2.32 540 540)" id="Fill-1"  >
<path style="stroke: rgb(0,0,0); stroke-width: 0; stroke-dasharray: none; stroke-linecap: butt; stroke-dashoffset: 0; stroke-linejoin: miter; stroke-miterlimit: 4; fill: rgb(0,0,0); fill-rule: nonzero; opacity: 1;" vector-effect="non-scaling-stroke"  transform=" translate(-93, -20)" d="M 140.5 5.55 L 133.81 26.42 L 147.23 26.42 L 140.5 5.55 z M 64.54 5.55 L 57.85000000000001 26.42 L 71.27000000000001 26.42 L 64.54 5.55 z M 172.87 4.08 C 170.11 4.08 167.85 5.01 166.33 6.76 C 164.89000000000001 8.43 164.13000000000002 10.77 164.13000000000002 13.54 L 164.13000000000002 26.46 C 164.13000000000002 29.22 164.89000000000001 31.57 166.33 33.230000000000004 C 167.85000000000002 34.99 170.11 35.910000000000004 172.87 35.910000000000004 C 175.6 35.910000000000004 177.85 34.99 179.38 33.230000000000004 C 180.82999999999998 31.560000000000002 181.6 29.220000000000006 181.6 26.460000000000004 L 181.6 13.54 C 181.6 10.78 180.82999999999998 8.44 179.38 6.759999999999999 C 177.85 5.009999999999999 175.6 4.079999999999998 172.87 4.079999999999998 z M 143.24 0.28 L 155.95000000000002 39.72 L 151.55 39.72 L 148.58 30.56 L 132.48000000000002 30.56 L 129.55 39.72 L 125.20000000000002 39.72 L 137.8 0.27 L 143.24 0.27 z M 67.28000000000002 0.28 L 80 39.71 L 75.6 39.71 L 72.61999999999999 30.55 L 56.51999999999999 30.55 L 53.58999999999999 39.71 L 49.23999999999999 39.71 L 61.84 0.27 L 67.29 0.27 z M 89.88000000000002 0.28 L 102.65000000000002 29.98 L 115.32 0.29 L 120.05999999999999 0.29 L 120.05999999999999 39.73 L 115.65999999999998 39.73 L 115.65999999999998 10.26 L 102.65999999999998 39.72 L 89.52999999999999 10.239999999999998 L 89.52999999999999 39.72 L 85.12999999999998 39.72 L 85.12999999999998 0.27 L 89.86999999999998 0.27 z M 172.85 0 C 176.54999999999998 0 179.88 1.28 182.24 3.6 C 184.69 6.02 185.99 9.36 185.99 13.27 L 185.99 26.72 C 185.99 30.63 184.69 33.98 182.24 36.39 C 179.70835073299187 38.77672750861676 176.3384049069554 40.07009690880134 172.86 39.99 C 169.15 39.99 165.81 38.71 163.46 36.39 C 161.01000000000002 33.99 159.72 30.64 159.72 26.72 L 159.72 13.27 C 159.72 9.35 161.02 6.01 163.45 3.5999999999999996 C 165.81 1.2799999999999998 169.14999999999998 -4.440892098500626e-16 172.85 -4.440892098500626e-16 z M 16.27 0 L 4.33 40 L 0 40 L 11.96 0 L 16.27 0 z M 33.33 0 C 37.019999999999996 0 40.36 1.3 42.739999999999995 3.69 C 43.947028981102726 4.900088311710813 44.89019300274462 6.347181124699276 45.51 7.940000000000008 C 46.18 9.69 46.51 11.559999999999999 46.5 13.44 L 42.09 13.44 C 42.09 10.739999999999998 41.32 8.44 39.86000000000001 6.779999999999999 C 38.32000000000001 5.01 36.06000000000001 4.079999999999999 33.330000000000005 4.079999999999999 C 30.560000000000006 4.079999999999999 28.290000000000006 5.009999999999999 26.770000000000007 6.76 C 25.320000000000007 8.43 24.560000000000006 10.78 24.560000000000006 13.54 L 24.560000000000006 26.46 C 24.560000000000006 29.23 25.320000000000007 31.57 26.760000000000005 33.24 C 28.290000000000006 34.99 30.560000000000006 35.92 33.330000000000005 35.92 C 36.06 35.92 38.330000000000005 34.99 39.870000000000005 33.25 C 41.32000000000001 31.59 42.09 29.28 42.09 26.57 L 42.09 26.56 L 46.5 26.56 C 46.5 28.52 46.17 30.36 45.5 32.04 C 44.88185934506756 33.63129333100373 43.94230545124995 35.07807016025187 42.74 36.29 C 40.22404672479884 38.73276565065327 36.83605618436204 40.06851962568202 33.33 40 C 29.61 40 26.25 38.72 23.89 36.4 C 21.44 33.989999999999995 20.15 30.65 20.15 26.729999999999997 L 20.15 13.28 C 20.15 9.36 21.45 6.01 23.89 3.6099999999999994 C 26.439059677218914 1.2113872708645435 29.83089967674145 -0.0857040848850712 33.33 0 z" stroke-linecap="round" />
</g>
</svg>