<?xml version="1.0" encoding="UTF-8" standalone="no" ?>
<!DOCTYPE svg PUBLIC "-//W3C//DTD SVG 1.1//EN" "http://www.w3.org/Graphics/SVG/1.1/DTD/svg11.dtd">
<svg xmlns="http://www.w3.org/2000/svg" xmlns:xlink="http://www.w3.org/1999/xlink" version="1.1" width="1080" height="1080" viewBox="0 0 1080 1080" xml:space="preserve">
<desc>Created with Fabric.js 4.2.0</desc>
<defs>
</defs>
<g transform="matrix(1 0 0 1 540 540)" id="80fd887c-be66-4cf3-858b-c9c1cfc163d9"  >
</g>
<g transform="matrix(1 0 0 1 540 540)" id="cd062857-1617-4210-a6f8-ddf004b8944f"  >
<rect style="stroke: none; stroke-width: 1; stroke-dasharray: none; stroke-linecap: butt; stroke-dashoffset: 0; stroke-linejoin: miter; stroke-miterlimit: 4; fill: rgb(255,255,255); fill-rule: nonzero; opacity: 1;" vector-effect="non-scaling-stroke"  x="-540" y="-540" rx="0" ry="0" width="1080" height="1080" />
</g>
<g transform="matrix(9.29 0 0 9.29 540 540)" id="Fill-1"  >
<path style="stroke: rgb(0,0,0); stroke-width: 0; stroke-dasharray: none; stroke-linecap: butt; stroke-dashoffset: 0; stroke-linejoin: miter; stroke-miterlimit: 4; fill: rgb(0,0,0); fill-rule: nonzero; opacity: 1;" vector-effect="non-scaling-stroke"  transform=" translate(-23.25, -20)" d="M 16.27 0 L 4.32 40 L 0 40 L 11.96 0 L 16.27 0 z M 33.33 0 C 37.019999999999996 0 40.36 1.3 42.739999999999995 3.69 C 43.947028981102726 4.900088311710813 44.89019300274462 6.347181124699276 45.51 7.940000000000008 C 46.18 9.69 46.51 11.559999999999999 46.5 13.44 L 42.09 13.44 C 42.09 10.739999999999998 41.32 8.44 39.86000000000001 6.779999999999999 C 38.32000000000001 5.01 36.06000000000001 4.079999999999999 33.330000000000005 4.079999999999999 C 30.560000000000006 4.079999999999999 28.290000000000006 5.009999999999999 26.770000000000007 6.76 C 25.320000000000007 8.43 24.560000000000006 10.78 24.560000000000006 13.54 L 24.560000000000006 26.46 C 24.560000000000006 29.23 25.320000000000007 31.57 26.760000000000005 33.24 C 28.290000000000006 34.99 30.560000000000006 35.92 33.330000000000005 35.92 C 36.06 35.92 38.330000000000005 34.99 39.870000000000005 33.25 C 41.32000000000001 31.59 42.09 29.28 42.09 26.57 L 42.09 26.56 L 46.5 26.56 C 46.5 28.52 46.17 30.36 45.5 32.04 C 44.88185934506756 33.63129333100373 43.94230545124995 35.07807016025187 42.74 36.29 C 40.22404672479884 38.73276565065327 36.83605618436204 40.06851962568202 33.33 40 C 29.61 40 26.25 38.72 23.89 36.4 C 21.44 33.989999999999995 20.15 30.65 20.15 26.729999999999997 L 20.15 13.28 C 20.15 9.36 21.45 6.01 23.89 3.6099999999999994 C 26.439059677218914 1.2113872708645435 29.83089967674145 -0.0857040848850712 33.33 0 z" stroke-linecap="round" />
</g>
</svg>