<svg xmlns="http://www.w3.org/2000/svg" width="47" height="40"><g id="Logos/Hackathon/Short" fill-rule="evenodd" stroke="none" stroke-width="1"><path id="Fill-1" d="M16.27 0L4.32 40H0L11.96 0h4.31zm17.06 0c3.69 0 7.03 1.3 9.41 3.69a12.37 12.37 0 0 1 2.77 4.25c.67 1.75 1 3.62.99 5.5h-4.41c0-2.7-.77-5-2.23-6.66-1.54-1.77-3.8-2.7-6.53-2.7-2.77 0-5.04.93-6.56 2.68-1.45 1.67-2.21 4.02-2.21 6.78v12.92c0 2.77.76 5.11 2.2 6.78 1.53 1.75 3.8 2.68 6.57 2.68 2.73 0 5-.93 6.54-2.67 1.45-1.66 2.22-3.97 2.22-6.68v-.01h4.41c0 1.96-.33 3.8-1 5.48a12.42 12.42 0 0 1-2.76 4.25A13.14 13.14 0 0 1 33.33 40c-3.72 0-7.08-1.28-9.44-3.6-2.45-2.41-3.74-5.75-3.74-9.67V13.28c0-3.92 1.3-7.27 3.74-9.67A13.3 13.3 0 0 1 33.33 0z"/></g></svg>